<mxfile host="app.diagrams.net" modified="2021-11-17T19:26:40.176Z" agent="5.0 (Windows)" etag="KJS8N7KgT4ry6MV3hU_j" version="15.6.8" type="github">
  <diagram id="5AFDKeI0XAiyJQLm4VW2" name="Page-1">
    <mxGraphModel dx="2062" dy="780" grid="1" gridSize="10" guides="1" tooltips="1" connect="1" arrows="1" fold="1" page="1" pageScale="1" pageWidth="850" pageHeight="1100" math="0" shadow="0">
      <root>
        <mxCell id="0" />
        <mxCell id="1" parent="0" />
        <mxCell id="V2IVUwF2Q-XYG3cvJmeJ-4" style="edgeStyle=orthogonalEdgeStyle;rounded=0;orthogonalLoop=1;jettySize=auto;html=1;entryX=0;entryY=0.5;entryDx=0;entryDy=0;" edge="1" parent="1" source="V2IVUwF2Q-XYG3cvJmeJ-1" target="V2IVUwF2Q-XYG3cvJmeJ-3">
          <mxGeometry relative="1" as="geometry" />
        </mxCell>
        <mxCell id="V2IVUwF2Q-XYG3cvJmeJ-1" value="Binance US Data" style="rounded=0;whiteSpace=wrap;html=1;" vertex="1" parent="1">
          <mxGeometry x="20" y="290" width="110" height="60" as="geometry" />
        </mxCell>
        <mxCell id="V2IVUwF2Q-XYG3cvJmeJ-8" style="edgeStyle=orthogonalEdgeStyle;rounded=0;orthogonalLoop=1;jettySize=auto;html=1;exitX=1;exitY=0.5;exitDx=0;exitDy=0;entryX=0.5;entryY=0;entryDx=0;entryDy=0;fontSize=12;" edge="1" parent="1" source="V2IVUwF2Q-XYG3cvJmeJ-3" target="V2IVUwF2Q-XYG3cvJmeJ-6">
          <mxGeometry relative="1" as="geometry" />
        </mxCell>
        <mxCell id="V2IVUwF2Q-XYG3cvJmeJ-3" value="Filter JSON Message" style="shape=process;whiteSpace=wrap;html=1;backgroundOutline=1;" vertex="1" parent="1">
          <mxGeometry x="170" y="290" width="120" height="60" as="geometry" />
        </mxCell>
        <mxCell id="V2IVUwF2Q-XYG3cvJmeJ-5" value="&lt;font style=&quot;font-size: 18px ; line-height: 1.2&quot;&gt;AWS EC2&lt;/font&gt;" style="whiteSpace=wrap;html=1;aspect=fixed;dashed=1;fillColor=none;imageVerticalAlign=top;spacingBottom=150;" vertex="1" parent="1">
          <mxGeometry x="340" y="190" width="210" height="210" as="geometry" />
        </mxCell>
        <mxCell id="V2IVUwF2Q-XYG3cvJmeJ-6" value="&lt;font style=&quot;font-size: 12px&quot;&gt;AWS MSK&lt;/font&gt;" style="rounded=0;whiteSpace=wrap;html=1;fontSize=18;fillColor=default;rotation=-90;" vertex="1" parent="1">
          <mxGeometry x="380" y="290" width="120" height="60" as="geometry" />
        </mxCell>
      </root>
    </mxGraphModel>
  </diagram>
</mxfile>
